
<global>
amp_veltrack=0
ampeg_attack=0.001
ampeg_release=1.25
</global>

<group>
color=red
group_label=Main_Hits_RR1
seq_length=4
seq_position=1

<region>
hivel=25
key=D3
lovel=0
offset=650
sample=Snare_Dreads_Hits_P_D3_RR1.opus
</region>

<region>
hivel=50
key=D3
lovel=26
offset=650
sample=Snare_Dreads_Hits_MP_D3_RR1.opus
</region>

<region>
hivel=75
key=D3
lovel=51
offset=650
sample=Snare_Dreads_Hits_MF_D3_RR1.opus
</region>

<region>
hivel=127
key=D3
lovel=101
offset=650
sample=Snare_Dreads_Hits_FF_D3_RR1.opus
</region>

<region>
hivel=100
key=D3
lovel=76
offset=650
sample=Snare_Dreads_Hits_F_D3_RR1.opus
</region>
</group>

<group>
color=red
group_label=Main_Hits_RR3
seq_length=4
seq_position=2

<region>
hivel=25
key=D3
lovel=0
offset=650
sample=Snare_Dreads_Hits_P_D3_RR3.opus
</region>

<region>
hivel=50
key=D3
lovel=26
offset=650
sample=Snare_Dreads_Hits_MP_D3_RR3.opus
</region>

<region>
hivel=75
key=D3
lovel=51
offset=650
sample=Snare_Dreads_Hits_MF_D3_RR3.opus
</region>

<region>
hivel=127
key=D3
lovel=101
offset=650
sample=Snare_Dreads_Hits_FF_D3_RR3.opus
</region>

<region>
hivel=100
key=D3
lovel=76
offset=650
sample=Snare_Dreads_Hits_F_D3_RR3.opus
</region>
</group>

<group>
color=red
group_label=Main_Hits_RR5
seq_length=4
seq_position=3

<region>
hivel=25
key=D3
lovel=0
offset=650
sample=Snare_Dreads_Hits_P_D3_RR5.opus
</region>

<region>
hivel=50
key=D3
lovel=26
offset=650
sample=Snare_Dreads_Hits_MP_D3_RR5.opus
</region>

<region>
hivel=75
key=D3
lovel=51
offset=650
sample=Snare_Dreads_Hits_MF_D3_RR5.opus
</region>

<region>
hivel=127
key=D3
lovel=101
offset=650
sample=Snare_Dreads_Hits_FF_D3_RR5.opus
</region>

<region>
hivel=100
key=D3
lovel=76
offset=650
sample=Snare_Dreads_Hits_F_D3_RR5.opus
</region>
</group>

<group>
color=red
group_label=Main_Hits_RR7
seq_length=4
seq_position=4

<region>
hivel=25
key=D3
lovel=0
offset=650
sample=Snare_Dreads_Hits_P_D3_RR7.opus
</region>

<region>
hivel=50
key=D3
lovel=26
offset=650
sample=Snare_Dreads_Hits_MP_D3_RR7.opus
</region>

<region>
hivel=75
key=D3
lovel=51
offset=650
sample=Snare_Dreads_Hits_MF_D3_RR7.opus
</region>

<region>
hivel=127
key=D3
lovel=101
offset=650
sample=Snare_Dreads_Hits_FF_D3_RR7.opus
</region>

<region>
hivel=100
key=D3
lovel=76
offset=650
sample=Snare_Dreads_Hits_F_D3_RR7.opus
</region>
</group>

<group>
color=green
group_label=Alt_Hits_RR1
seq_length=2
seq_position=1

<region>
hivel=25
key=D4
lovel=0
offset=5060
sample=Snare_Dreads_Rim_Hit_P_D3_RR1.opus
</region>

<region>
hivel=50
key=D4
lovel=26
offset=4266
sample=Snare_Dreads_Rim_Hit_MP_D3_RR1.opus
</region>

<region>
hivel=75
key=D4
lovel=51
offset=4003
sample=Snare_Dreads_Rim_Hit_MF_D3_RR1.opus
</region>

<region>
hivel=127
key=D4
lovel=101
offset=650
sample=Snare_Dreads_Rim_Hit_FF_D3_RR1.opus
</region>

<region>
hivel=25
key=D#4
lovel=0
offset=4480
sample=Snare_Dreads_Shell_Hit_P_D3_RR1.opus
</region>

<region>
hivel=50
key=D#4
lovel=26
offset=3317
sample=Snare_Dreads_Shell_Hit_MP_D3_RR1.opus
</region>

<region>
hivel=75
key=D#4
lovel=51
offset=968
sample=Snare_Dreads_Shell_Hit_MF_D3_RR1.opus
</region>

<region>
hivel=127
key=D#4
lovel=76
offset=650
sample=Snare_Dreads_Shell_Hit_FF_D3_RR1.opus
</region>

<region>
hivel=100
key=D4
lovel=76
offset=650
sample=Snare_Dreads_Shell_Hit_F_D3_RR1.opus
</region>
</group>

<group>
color=green
group_label=Alt_Hits_RR3
seq_length=2
seq_position=2

<region>
hivel=25
key=D4
lovel=0
offset=6267
sample=Snare_Dreads_Rim_Hit_P_D3_RR3.opus
</region>

<region>
hivel=50
key=D4
lovel=26
offset=3987
sample=Snare_Dreads_Rim_Hit_MP_D3_RR3.opus
</region>

<region>
hivel=75
key=D4
lovel=51
offset=4001
sample=Snare_Dreads_Rim_Hit_MF_D3_RR3.opus
</region>

<region>
hivel=127
key=D4
lovel=101
offset=858
sample=Snare_Dreads_Rim_Hit_FF_D3_RR3.opus
</region>

<region>
hivel=100
key=D4
lovel=76
offset=650
sample=Snare_Dreads_Rim_Hit_F_D3_RR3.opus
</region>

<region>
hivel=25
key=D#4
lovel=0
offset=5304
sample=Snare_Dreads_Shell_Hit_P_D3_RR3.opus
</region>

<region>
hivel=50
key=D#4
lovel=26
offset=1387
sample=Snare_Dreads_Shell_Hit_MP_D3_RR3.opus
</region>

<region>
hivel=75
key=D#4
lovel=51
offset=2313
sample=Snare_Dreads_Shell_Hit_MF_D3_RR3.opus
</region>

<region>
hivel=127
key=D#4
lovel=101
offset=650
sample=Snare_Dreads_Shell_Hit_FF_D3_RR3.opus
</region>

<region>
hivel=100
key=D#4
lovel=76
offset=650
sample=Snare_Dreads_Shell_Hit_F_D3_RR3.opus
</region>
</group>